<svg xmlns="http://www.w3.org/2000/svg" width="390" height="93" fill="none" viewBox="0 0 390 93">
  <g filter="url(#filter0_d_75723:316)">
    <path fill="#000" d="M27.096 12.608v40.32c0 4.032.992 7.136 2.976 9.312 1.984 2.176 4.896 3.264 8.736 3.264 3.84 0 6.784-1.088 8.832-3.264 2.048-2.176 3.072-5.28 3.072-9.312v-40.32h16.416v40.224c0 6.016-1.28 11.104-3.84 15.264-2.56 4.16-6.016 7.296-10.368 9.408-4.288 2.112-9.088 3.168-14.4 3.168-5.312 0-10.08-1.024-14.304-3.072-4.16-2.112-7.456-5.248-9.888-9.408-2.432-4.224-3.648-9.344-3.648-15.36V12.608h16.416zm100.039 0V25.76h-17.856V80H92.863V25.76H75.007V12.608h52.128z"/>
    <path fill="#FC0" d="M179.246 12.608V25.76H151.79v14.208h20.544v12.768H151.79V80h-16.416V12.608h43.872z"/>
    <path fill="#fff" d="M246.242 12.608V80h-16.416V52.256H204.29V80h-16.416V12.608h16.416v26.4h25.536v-26.4h16.416zm64.747 13.824V80h-16.416v-7.296c-1.664 2.368-3.936 4.288-6.816 5.76-2.816 1.408-5.952 2.112-9.408 2.112-4.096 0-7.712-.896-10.848-2.688-3.136-1.856-5.568-4.512-7.296-7.968-1.728-3.456-2.592-7.52-2.592-12.192V26.432h16.32V55.52c0 3.584.928 6.368 2.784 8.352 1.856 1.984 4.352 2.976 7.488 2.976 3.2 0 5.728-.992 7.584-2.976 1.856-1.984 2.784-4.768 2.784-8.352V26.432h16.416zm28.207 7.584c1.536-2.496 3.744-4.512 6.624-6.048 2.88-1.536 6.176-2.304 9.888-2.304 4.416 0 8.416 1.12 12 3.36 3.584 2.24 6.4 5.44 8.448 9.6 2.112 4.16 3.168 8.992 3.168 14.496s-1.056 10.368-3.168 14.592c-2.048 4.16-4.864 7.392-8.448 9.696-3.584 2.24-7.584 3.36-12 3.36-3.776 0-7.072-.736-9.888-2.208-2.816-1.536-5.024-3.552-6.624-6.048V80H322.78V8.96h16.416v25.056zM362.62 53.12c0-4.096-1.152-7.296-3.456-9.6-2.24-2.368-5.024-3.552-8.352-3.552-3.264 0-6.048 1.184-8.352 3.552-2.24 2.368-3.36 5.6-3.36 9.696s1.12 7.328 3.36 9.696c2.304 2.368 5.088 3.552 8.352 3.552 3.264 0 6.048-1.184 8.352-3.552 2.304-2.432 3.456-5.696 3.456-9.792z"/>
  </g>
  <defs>
    <filter id="filter0_d_75723:316" width="388.645" height="91.808" x=".68" y=".96" color-interpolation-filters="sRGB" filterUnits="userSpaceOnUse">
      <feFlood flood-opacity="0" result="BackgroundImageFix"/>
      <feColorMatrix in="SourceAlpha" result="hardAlpha" values="0 0 0 0 0 0 0 0 0 0 0 0 0 0 0 0 0 0 127 0"/>
      <feOffset dy="2"/>
      <feGaussianBlur stdDeviation="5"/>
      <feComposite in2="hardAlpha" operator="out"/>
      <feColorMatrix values="0 0 0 0 0 0 0 0 0 0 0 0 0 0 0 0 0 0 0.25 0"/>
      <feBlend in2="BackgroundImageFix" result="effect1_dropShadow_75723:316"/>
      <feBlend in="SourceGraphic" in2="effect1_dropShadow_75723:316" result="shape"/>
    </filter>
  </defs>
</svg>
