<svg xmlns="http://www.w3.org/2000/svg" width="57" height="57" fill="none" viewBox="0 0 57 57">
  <circle cx="28.5" cy="28.5" r="28.5" fill="#FF941A"/>
  <path fill="#fff" d="M28.5 28.5c3.945 0 7.143-3.245 7.143-7.25S32.445 14 28.5 14s-7.143 3.245-7.143 7.25 3.198 7.25 7.143 7.25zm5 1.813h-.932a9.605 9.605 0 01-4.068.906 9.624 9.624 0 01-4.068-.907H23.5c-4.14 0-7.5 3.41-7.5 7.613v2.356C16 41.782 17.2 43 18.679 43H38.32C39.801 43 41 41.782 41 40.281v-2.356c0-4.203-3.36-7.612-7.5-7.612z"/>
</svg>
